<svg xmlns="http://www.w3.org/2000/svg" enable-background="new 0 0 100 100" viewBox="0 0 100 100"><path d="M85,31c-0.5,0-1-0.2-1.4-0.6c-0.8-0.8-0.8-2,0-2.8l2.6-2.6H61c-1.1,0-2,0.9-2,2v6h-4v-6c0-3.3,2.7-6,6-6h25.2l-2.6-2.6
	c-0.8-0.8-0.8-2,0-2.8c0.8-0.8,2-0.8,2.8,0l6,6c0.8,0.8,0.8,2,0,2.8l-6,6C86,30.8,85.5,31,85,31z M91,33c-1.1,0-2,0.9-2,2v6
	c0,1.1-0.9,2-2,2h-2v4h2c3.3,0,6-2.7,6-6v-6C93,33.9,92.1,33,91,33z M7.2,39.8C7.1,40.2,7,40.6,7,41v40c0,0.4,0.1,0.8,0.2,1.2
	L31.7,61L7.2,39.8z M56.3,61l24.5,21.2c0.1-0.4,0.2-0.8,0.2-1.2V47h-8.5L56.3,61z M37.8,61l4.9,4.2c0.8,0.7,1.9,0.7,2.6,0l4.9-4.2
	l1.8-1.5L66.4,47H61c-3.3,0-6-2.7-6-6v-4H11c-0.3,0-0.6,0-0.8,0.1l25.9,22.4L37.8,61z M47.9,68.2c-1.1,1-2.5,1.5-3.9,1.5
	s-2.8-0.5-3.9-1.5l-5.3-4.6L10.2,84.9C10.4,85,10.7,85,11,85h66c0.3,0,0.6,0,0.8-0.1L53.2,63.6L47.9,68.2z M77,37H59v4
	c0,1.1,0.9,2,2,2h20v-2C81,38.8,79.2,37,77,37z"/></svg>